# xmcd
#
# Track frame offsets: 
#        150
#        28351
#        56985
#        90747
#        104875
#        118958
#        129207
#        143358
#        153810
#        165088
#        178534
#        188562
#        201376
#        213111
#        232620
#        245525
#        257407
#        270421
#        282552
#        296420
#
# Disc length: 4099 seconds
#
# Revision: 0
# Processed by: cddbd v1.5.2PL0 Copyright (c) Steve Scherf et al.
# Submitted via: ExactAudioCopy v0.95b4
#
DISCID=18100114
DTITLE=Ray Charles - I Got A Woman [CD1)
DYEAR=2006
DGENRE=Blues
TTITLE0=I Got A Woman
TTITLE1=What'd I Say
TTITLE2=Georgija On My Mind
TTITLE3=Kiss Me Baby
TTITLE4=Late In The Evening Blues
TTITLE5=Sittin On Top Of The World
TTITLE6=Blues Is My Middle Name
TTITLE7=Ain't That Fine
TTITLE8=Sentimental Blues
TTITLE9=I'm Going Down To The River
TTITLE10=Heartbreaker
TTITLE11=I'm Movin' On
TTITLE12=She's On The Ball
TTITLE13=Talkin' 'Bout You
TTITLE14=Baby Won't Yoy Please Come Home
TTITLE15=Can't You See Darling
TTITLE16=Don't Put All You Dreams In One Basket
TTITLE17=Tell Me How Do You Feel
TTITLE18=This Love Of Mine
TTITLE19=You Be My Baby
EXTD=
EXTT0=
EXTT1=
EXTT2=
EXTT3=
EXTT4=
EXTT5=
EXTT6=
EXTT7=
EXTT8=
EXTT9=
EXTT10=
EXTT11=
EXTT12=
EXTT13=
EXTT14=
EXTT15=
EXTT16=
EXTT17=
EXTT18=
EXTT19=
PLAYORDER=
